<svg  viewBox="0 0 20 25" fill="none" xmlns="http://www.w3.org/2000/svg">
<circle cx="10" cy="15" r="9.25" stroke="white" stroke-width="1.5"/>
<path d="M8.09744 13.336L6.60944 12.64C7.15344 11.208 8.32944 10.492 10.1374 10.492C10.9454 10.492 11.6374 10.68 12.2134 11.056C12.7974 11.424 13.0894 11.984 13.0894 12.736C13.0894 13.536 12.7254 14.108 11.9974 14.452C12.9094 14.78 13.3654 15.428 13.3654 16.396C13.3654 17.268 13.0574 17.936 12.4414 18.4C11.8254 18.864 11.0654 19.096 10.1614 19.096C9.23344 19.096 8.46144 18.928 7.84544 18.592C7.22944 18.256 6.76944 17.684 6.46544 16.876L8.09744 16.144C8.17744 16.4 8.32144 16.628 8.52944 16.828C8.74544 17.028 8.98544 17.164 9.24944 17.236C9.48944 17.316 9.72944 17.356 9.96944 17.356C10.3374 17.356 10.6734 17.28 10.9774 17.128C11.2894 16.968 11.4454 16.724 11.4454 16.396C11.4454 16.196 11.3734 16.028 11.2294 15.892C11.0934 15.756 10.9174 15.66 10.7014 15.604C10.4614 15.564 10.2574 15.544 10.0894 15.544H8.86544V13.864H9.84944C10.1694 13.864 10.4694 13.796 10.7494 13.66C11.0294 13.524 11.1694 13.312 11.1694 13.024C11.1694 12.776 11.0734 12.58 10.8814 12.436C10.6734 12.3 10.3694 12.232 9.96944 12.232C9.05744 12.232 8.43344 12.6 8.09744 13.336Z" fill="white"/>
</svg>
