<svg width="90" height="90" viewBox="0 0 90 90" fill="none" xmlns="http://www.w3.org/2000/svg">
<path d="M61.4704 23.3673C60.2351 22.4254 59.9978 20.6605 60.9398 19.4254C61.8814 18.1903 63.6465 17.9527 64.8814 18.8946C72.9683 25.062 77.8125 34.6322 77.8125 45C77.8125 62.2136 64.5578 76.3312 47.6978 77.703L50.5114 80.5114L50.7836 80.8267C51.6004 81.9277 51.5096 83.4904 50.5114 84.4886C49.413 85.587 47.6321 85.587 46.5338 84.4886L39.0338 76.9886L38.7615 76.6732C37.9444 75.5722 38.0351 74.0096 39.0338 73.0114L40.2825 71.7626C41.8147 72.0311 43.3916 72.171 45.0008 72.171C46.0121 72.171 47.0107 72.1159 47.9936 72.0079L47.9749 72.0266C61.5907 70.545 72.1875 59.01 72.1875 45C72.1875 36.4058 68.1765 28.4818 61.4704 23.3673ZM39.4886 9.48873C38.3903 8.39039 38.3903 6.60959 39.4886 5.51125C40.587 4.41292 42.3679 4.41292 43.4662 5.51125L50.9662 13.0113C52.0646 14.1096 52.0646 15.8904 50.9662 16.9887L49.7164 18.2385C48.1849 17.9706 46.6091 17.8308 45.0008 17.8308C43.9868 17.8308 42.9859 17.8864 42.0007 17.9946L42.0214 17.9738C28.4074 19.4573 17.8125 30.9913 17.8125 45C17.8125 53.2207 21.4797 60.8359 27.6979 65.9722C28.8954 66.9615 29.0643 68.7345 28.0751 69.9319C27.0858 71.1296 25.3131 71.2984 24.1155 70.3091C16.6172 64.1152 12.1875 54.9169 12.1875 45C12.1875 27.7878 25.4403 13.671 42.2985 12.2971L39.4886 9.48873ZM56.3636 41.3636C57.462 40.2652 57.462 38.4847 56.3636 37.3863C55.2653 36.2879 53.4847 36.2879 52.3864 37.3863L41.25 48.5224L37.6136 44.8864C36.5154 43.788 34.7346 43.788 33.6363 44.8864C32.5379 45.9847 32.5379 47.7652 33.6363 48.8636L39.2614 54.4886C40.3597 55.587 42.1403 55.587 43.2386 54.4886L56.3636 41.3636ZM45 67.5C57.4264 67.5 67.5 57.4264 67.5 45C67.5 32.5736 57.4264 22.5 45 22.5C32.5736 22.5 22.5 32.5736 22.5 45C22.5 57.4264 32.5736 67.5 45 67.5ZM45 61.875C35.6802 61.875 28.125 54.3199 28.125 45C28.125 35.6802 35.6802 28.125 45 28.125C54.3199 28.125 61.875 35.6802 61.875 45C61.875 54.3199 54.3199 61.875 45 61.875Z" fill="#1D1D1B"/>
</svg>
