<svg width="90" height="90" viewBox="0 0 90 90" fill="none" xmlns="http://www.w3.org/2000/svg">
<path d="M15 19.6875C15 15.0276 18.7776 11.25 23.4375 11.25H59.0625C63.7222 11.25 67.5 15.0276 67.5 19.6875V52.5H82.5V66.5625C82.5 73.2934 77.0434 78.75 70.3125 78.75H48.5625C48.6855 78.144 48.75 77.517 48.75 76.875V73.125H61.875V19.6875C61.875 18.1342 60.6157 16.875 59.0625 16.875H23.4375C21.8842 16.875 20.625 18.1342 20.625 19.6875V52.5H15V19.6875ZM67.5 73.125H70.3125C73.9369 73.125 76.875 70.1869 76.875 66.5625V58.125H67.5V73.125ZM30.9375 26.25C29.3842 26.25 28.125 27.5092 28.125 29.0625C28.125 30.6158 29.3842 31.875 30.9375 31.875H51.5625C53.1157 31.875 54.375 30.6158 54.375 29.0625C54.375 27.5092 53.1157 26.25 51.5625 26.25H30.9375ZM28.125 44.0625C28.125 42.5093 29.3842 41.25 30.9375 41.25H51.5625C53.1157 41.25 54.375 42.5093 54.375 44.0625C54.375 45.6157 53.1157 46.875 51.5625 46.875H30.9375C29.3842 46.875 28.125 45.6157 28.125 44.0625ZM9.375 56.25C6.26839 56.25 3.75 58.7685 3.75 61.875V76.875C3.75 79.9815 6.26839 82.5 9.375 82.5H39.375C42.4815 82.5 45 79.9815 45 76.875V61.875C45 58.7685 42.4815 56.25 39.375 56.25H9.375ZM37.5 60C37.5 62.0711 39.1789 63.75 41.25 63.75V67.5C37.1079 67.5 33.75 64.1423 33.75 60H37.5ZM33.75 78.75C33.75 74.6077 37.1079 71.25 41.25 71.25V75C39.1789 75 37.5 76.6789 37.5 78.75H33.75ZM7.5 63.75C9.57109 63.75 11.25 62.0711 11.25 60H15C15 64.1423 11.6421 67.5 7.5 67.5V63.75ZM7.5 71.25C11.6421 71.25 15 74.6077 15 78.75H11.25C11.25 76.6789 9.57105 75 7.5 75V71.25ZM24.375 62.8125C27.9994 62.8125 30.9375 65.7506 30.9375 69.375C30.9375 72.9994 27.9994 75.9375 24.375 75.9375C20.7506 75.9375 17.8125 72.9994 17.8125 69.375C17.8125 65.7506 20.7506 62.8125 24.375 62.8125Z" fill="#1D1D1B"/>
</svg>
