<svg width="90" height="90" viewBox="0 0 90 90" fill="none" xmlns="http://www.w3.org/2000/svg">
<path d="M23.4375 13.125C21.8842 13.125 20.625 14.3842 20.625 15.9375V43.6024C18.9844 42.4583 17.0701 41.679 15 41.3828V15.9375C15 11.2776 18.7776 7.5 23.4375 7.5H39.867C42.1046 7.5 44.2507 8.38894 45.8329 9.97129L63.1537 27.292C64.7359 28.8743 65.625 31.0204 65.625 33.2582V64.6875C65.625 69.3472 61.8472 73.125 57.1875 73.125H48.2066C47.5635 70.9642 46.3789 69.0371 44.8106 67.5H57.1875C58.7407 67.5 60 66.2407 60 64.6875V33.7407H47.8271C43.1674 33.7407 39.3896 29.9631 39.3896 25.3032V13.125H23.4375ZM45.0146 17.1078V25.3032C45.0146 26.8565 46.2739 28.1157 47.8271 28.1157H56.0224L45.0146 17.1078ZM57.1909 82.5H47.487C48.2966 80.7952 48.75 78.888 48.75 76.875H57.1909C63.9217 76.875 69.3784 71.4184 69.3784 64.6875V33.5133L72.5321 36.667C74.1142 38.2492 75.0034 40.3954 75.0034 42.6334V64.6875C75.0034 74.5253 67.0282 82.5 57.1909 82.5ZM13.125 63.75C18.3027 63.75 22.5 59.5526 22.5 54.375C22.5 49.1974 18.3027 45 13.125 45C7.94734 45 3.75 49.1974 3.75 54.375C3.75 59.5526 7.94734 63.75 13.125 63.75ZM13.125 50.625C15.196 50.625 16.875 52.3039 16.875 54.375C16.875 56.4461 15.196 58.125 13.125 58.125C11.0539 58.125 9.375 56.4461 9.375 54.375C9.375 52.3039 11.0539 50.625 13.125 50.625ZM35.625 86.25C40.8026 86.25 45 82.0526 45 76.875C45 71.6974 40.8026 67.5 35.625 67.5C30.4473 67.5 26.25 71.6974 26.25 76.875C26.25 82.0526 30.4473 86.25 35.625 86.25ZM35.625 73.125C37.6961 73.125 39.375 74.8039 39.375 76.875C39.375 78.9461 37.6961 80.625 35.625 80.625C33.5539 80.625 31.875 78.9461 31.875 76.875C31.875 74.8039 33.5539 73.125 35.625 73.125ZM40.4261 53.5511C41.5245 52.4528 41.5245 50.6722 40.4261 49.5739C39.3277 48.4755 37.5472 48.4755 36.4488 49.5739L8.32376 77.6989C7.22543 78.7972 7.22543 80.5778 8.32376 81.6761C9.4221 82.7745 11.2029 82.7745 12.3012 81.6761L40.4261 53.5511Z" fill="#1D1D1B"/>
</svg>
