<svg width="90" height="90" viewBox="0 0 90 90" fill="none" xmlns="http://www.w3.org/2000/svg">
<path d="M65.625 45C54.234 45 45 35.7659 45 24.375C45 12.9841 54.234 3.75 65.625 3.75C77.016 3.75 86.25 12.9841 86.25 24.375C86.25 35.7659 77.016 45 65.625 45ZM72.576 13.6742C71.8436 12.9419 70.6564 12.9419 69.924 13.6742C69.192 14.4064 69.192 15.5936 69.924 16.3258L72.3484 18.75H64.6875C57.9566 18.75 52.5 24.2065 52.5 30.9375V31.875C52.5 32.9105 53.3396 33.75 54.375 33.75C55.4104 33.75 56.25 32.9105 56.25 31.875V30.9375C56.25 26.2776 60.0278 22.5 64.6875 22.5H72.3484L69.924 24.9242C69.192 25.6564 69.192 26.8436 69.924 27.5758C70.6564 28.308 71.8436 28.308 72.576 27.5758L78.201 21.9508C78.933 21.2186 78.933 20.0314 78.201 19.2992L72.576 13.6742ZM63.75 48.75V48.6791C61.8019 48.5306 59.9183 48.1537 58.125 47.5744V48.75C58.125 49.7854 57.2854 50.625 56.25 50.625H15C13.9645 50.625 13.125 49.7854 13.125 48.75V22.5C13.125 21.4645 13.9645 20.625 15 20.625H41.5365C41.8395 18.663 42.3765 16.7781 43.1183 15H15C10.8579 15 7.5 18.3579 7.5 22.5V48.75C7.5 52.8923 10.8579 56.25 15 56.25H56.25C60.3923 56.25 63.75 52.8923 63.75 48.75ZM67.5 48.6791C69.4481 48.5306 71.3321 48.1537 73.125 47.5744V50.625C73.125 58.9091 66.4091 65.625 58.125 65.625H24.375C20.8803 65.625 17.9439 63.2347 17.1113 60H58.125C63.3026 60 67.5 55.8026 67.5 50.625V48.6791ZM82.5 41.964C80.8339 43.563 78.9413 44.9272 76.875 46.0042V53.4375C76.875 62.2395 69.7395 69.375 60.9375 69.375H26.4863C27.3189 72.6097 30.2553 75 33.75 75H60.9375C72.846 75 82.5 65.346 82.5 53.4375V41.964Z" fill="#1D1D1B"/>
</svg>
