<svg viewBox="0 0 20 25" fill="none" xmlns="http://www.w3.org/2000/svg">
<path d="M10 5C15.5228 5 20 9.47715 20 15C20 20.5228 15.5228 25 10 25C4.47715 25 0 20.5228 0 15C0 9.47715 4.47715 5 10 5ZM10 6.5C5.30558 6.5 1.5 10.3056 1.5 15C1.5 19.6944 5.30558 23.5 10 23.5C14.6944 23.5 18.5 19.6944 18.5 15C18.5 10.3056 14.6944 6.5 10 6.5ZM8.75 16.4393L13.2197 11.9697C13.5126 11.6768 13.9874 11.6768 14.2803 11.9697C14.5466 12.2359 14.5708 12.6526 14.3529 12.9462L14.2803 13.0303L9.2803 18.0303C9.0141 18.2966 8.5974 18.3208 8.3038 18.1029L8.2197 18.0303L5.71967 15.5303C5.42678 15.2374 5.42678 14.7626 5.71967 14.4697C5.98594 14.2034 6.4026 14.1792 6.69621 14.3971L6.78033 14.4697L8.75 16.4393Z" fill="#E1192F"/>
</svg>
