<svg  viewBox="0 0 20 25" fill="none" xmlns="http://www.w3.org/2000/svg">
<circle cx="10" cy="15" r="9.25" stroke="white" stroke-width="1.5"/>
<path d="M8.2975 13.66L6.6775 13.048C6.8855 12.248 7.3055 11.628 7.9375 11.188C8.5695 10.74 9.3015 10.516 10.1335 10.516C11.0535 10.516 11.7935 10.76 12.3535 11.248C12.9215 11.728 13.2055 12.412 13.2055 13.3C13.2055 13.708 13.1375 14.092 13.0015 14.452C12.8655 14.812 12.6655 15.14 12.4015 15.436C12.1455 15.732 11.8815 15.992 11.6095 16.216C11.3375 16.432 11.0135 16.66 10.6375 16.9L10.0735 17.26H13.2895V19H6.7975V17.644L7.7935 16.948C8.3135 16.596 8.9495 16.148 9.7015 15.604C9.9815 15.388 10.2175 15.196 10.4095 15.028C10.6095 14.852 10.8055 14.616 10.9975 14.32C11.1895 14.024 11.2855 13.74 11.2855 13.468C11.2855 13.084 11.1775 12.796 10.9615 12.604C10.7455 12.412 10.4455 12.316 10.0615 12.316C9.2295 12.316 8.6415 12.764 8.2975 13.66Z" fill="white"/>
</svg>
